<svg width="180" height="21" viewBox="0 0 180 21" fill="none" xmlns="http://www.w3.org/2000/svg">
<path fill-rule="evenodd" clip-rule="evenodd" d="M62.7598 14.1197C61.2297 19.8249 64.3182 20.8826 67.247 20.8826H75.0086C75.0086 20.8826 74.2126 20.1467 73.9225 19.1858C73.6868 18.4039 73.868 17.4889 73.868 17.4889H68.1572C66.6558 17.4889 66.0829 16.5052 66.373 15.423H74.2983L74.7795 13.6277C75.7095 10.1602 74.3448 7.35645 70.5053 7.35645C67.0349 7.35645 63.9205 9.79117 62.7598 14.1197ZM67.5902 11.7094C67.9879 11.144 68.6548 10.6762 69.6148 10.6762C70.5746 10.6762 70.991 11.144 71.0853 11.7094C71.1652 12.0537 71.1157 12.4225 71.0297 12.7421H67.0919C67.1777 12.4225 67.3257 12.0537 67.5902 11.7094Z" fill="white"/>
<path fill-rule="evenodd" clip-rule="evenodd" d="M8.01606 1.87451C6.38217 1.87451 4.70292 3.19812 4.2648 4.83073L0 20.7352H4.08193L6.13695 13.0716H13.7422L14.7712 9.23515H7.166L8.1107 5.711H15.7159L16.745 1.87451H8.01606Z" fill="white"/>
<path fill-rule="evenodd" clip-rule="evenodd" d="M17.9228 1.87451L12.8652 20.7352H16.9018L21.9593 1.87451H17.9228Z" fill="white"/>
<path fill-rule="evenodd" clip-rule="evenodd" d="M42.4327 7.50415L39.7197 10.7365L38.79 7.50415H33.9415L36.6178 14.044L30.1816 20.8826H35.0301L37.906 17.5006L39.0174 20.8826H43.8659L41.0972 14.044L47.2815 7.50415H42.4327Z" fill="white"/>
<path fill-rule="evenodd" clip-rule="evenodd" d="M77.1868 8.45199L78.0972 11.5297C79.1881 10.9788 80.2015 10.6662 81.6681 10.6662C83.071 10.6662 83.5784 11.4174 83.3156 12.3981L83.2232 12.7421H80.5405C77.3902 12.7421 75.5417 14.5866 75.0076 16.5786C74.6778 17.8085 74.7746 18.9151 75.3333 19.6775C75.8738 20.4156 76.8628 20.8581 78.1919 20.8581C79.5947 20.8581 80.3783 20.6896 81.4081 19.878L81.1782 20.7352H85.1165L87.4179 12.1522C88.2819 8.93037 85.8185 7.35645 82.6457 7.35645C80.8403 7.35645 79.6022 7.63624 77.1868 8.45199ZM79.9304 17.5874C79.0444 17.5874 78.7397 17.0706 78.898 16.4804C79.0628 15.8655 79.6741 15.423 80.4615 15.423H82.5045L82.4723 15.542C82.3008 16.1817 82.0269 16.9385 81.6592 17.2091C81.1933 17.5601 80.8464 17.5882 80.2814 17.5882C80.1731 17.5882 80.0571 17.5874 79.9304 17.5874Z" fill="white"/>
<path fill-rule="evenodd" clip-rule="evenodd" d="M91.2392 1.87451L86.1816 20.7352H90.2176L95.2755 1.87451H91.2392Z" fill="white"/>
<path fill-rule="evenodd" clip-rule="evenodd" d="M19.5313 14.1197C18.0012 19.8249 21.0895 20.8826 24.0185 20.8826H29.1553L32.3173 17.4889H24.9287C23.4273 17.4889 22.8542 16.5052 23.1442 15.423H31.0698L31.551 13.6277C32.4807 10.1602 31.116 7.35645 27.2765 7.35645C23.8061 7.35645 20.692 9.79117 19.5313 14.1197ZM24.3617 11.7094C24.7594 11.144 25.4263 10.6762 26.3861 10.6762C27.3461 10.6762 27.7622 11.144 27.8566 11.7094C27.9365 12.0537 27.8869 12.4225 27.8012 12.7421H23.8632C23.9489 12.4225 24.0972 12.0537 24.3617 11.7094Z" fill="white"/>
<path fill-rule="evenodd" clip-rule="evenodd" d="M49.0159 7.50415L46.457 17.0461H50.7644L53.323 7.50415H49.0159Z" fill="url(#paint0_linear_97_20)"/>
<path fill-rule="evenodd" clip-rule="evenodd" d="M53.7852 17.0462H54.9044L54.9347 16.8589C54.6043 16.9772 54.2286 17.0462 53.7852 17.0462Z" fill="url(#paint1_linear_97_20)"/>
<path fill-rule="evenodd" clip-rule="evenodd" d="M48.7534 0L43.4805 6.30848H48.0013H53.6431H56.6643C57.7473 6.30848 58.2325 6.70203 58.468 7.29222C58.6806 7.78423 58.6717 8.27595 57.8804 11.2272C57.0824 14.2031 56.5927 15.5704 56.1162 16.0624C55.5643 16.6526 54.8678 17.0461 53.7851 17.0461H50.7639L50.9087 16.5057H46.6016L45.9769 18.8353C45.6735 19.9659 46.3452 20.8826 47.4767 20.8826H53.0516C54.8729 20.8826 56.7097 20.3661 58.2386 19.1613C60.8292 17.1196 61.4488 13.9817 62.1875 11.2272C62.9262 8.47287 63.7479 6.23506 62.2523 4.1936C61.3694 2.98848 59.8099 2.47199 57.9884 2.47199H51.2079L53.2743 0H48.7534Z" fill="url(#paint2_linear_97_20)"/>
<path d="M110.869 20.7447L106.371 2.10229H108.467L112.172 17.9356H112.223L116.056 3.63455H118.663L122.496 17.9356H122.547L126.252 2.10229H128.347L123.85 20.7447H121.269L117.385 6.44369H117.334L113.45 20.7447H110.869Z" fill="white"/>
<path d="M133.251 21.0001C131.906 21.0001 130.841 20.6426 130.057 19.9275C129.274 19.1955 128.882 18.2165 128.882 16.9907C128.882 15.4585 129.503 14.2837 130.747 13.4665C131.991 12.6323 133.771 12.2152 136.088 12.2152H138.209C138.209 11.3639 138.107 10.7 137.902 10.2233C137.698 9.74655 137.357 9.41456 136.88 9.22729C136.403 9.02298 135.739 8.92083 134.887 8.92083C134.035 8.92083 133.166 9.00596 132.28 9.17621C131.412 9.34646 130.577 9.60184 129.776 9.94234L129.418 8.30793C130.27 7.95041 131.182 7.678 132.153 7.49073C133.141 7.30345 134.137 7.20981 135.142 7.20981C136.42 7.20981 137.425 7.37155 138.158 7.69503C138.89 8.01851 139.418 8.56331 139.742 9.32944C140.066 10.0956 140.228 11.1171 140.228 12.3939V20.7447H138.286L138.26 18.9316H138.209C137.766 19.5445 137.076 20.0467 136.139 20.4383C135.219 20.8128 134.257 21.0001 133.251 21.0001ZM133.89 19.3402C134.691 19.3402 135.415 19.1869 136.062 18.8805C136.727 18.574 137.246 18.1654 137.621 17.6547C138.013 17.1269 138.209 16.5481 138.209 15.9181V13.773H136.343C134.538 13.773 133.175 14.0369 132.255 14.5646C131.335 15.0754 130.875 15.8245 130.875 16.812C130.875 17.5951 131.139 18.2165 131.667 18.6762C132.195 19.1188 132.936 19.3402 133.89 19.3402Z" fill="white"/>
<path d="M144.339 20.7447V2.10229H146.384V20.7447H144.339Z" fill="white"/>
<path d="M151.077 20.7447V2.10229H153.121V20.7447H151.077Z" fill="white"/>
<path d="M163.512 21.0001C161.298 21.0001 159.585 20.4042 158.376 19.2125C157.183 18.0207 156.587 16.3182 156.587 14.105C156.587 11.9598 157.141 10.2743 158.248 9.04852C159.372 7.82272 160.923 7.20981 162.899 7.20981C164.79 7.20981 166.238 7.78867 167.243 8.94637C168.248 10.0871 168.751 11.73 168.751 13.8751C168.751 14.0454 168.751 14.2241 168.751 14.4114C168.751 14.5987 168.742 14.7604 168.725 14.8966H157.686V13.2622H167.243L166.86 13.7985C166.86 12.1471 166.528 10.9128 165.863 10.0956C165.199 9.27836 164.211 8.86976 162.899 8.86976C161.502 8.86976 160.429 9.31241 159.679 10.1977C158.93 11.066 158.555 12.3088 158.555 13.9262V14.437C158.555 16.0543 158.964 17.2716 159.781 18.0888C160.616 18.889 161.834 19.2891 163.436 19.2891C164.168 19.2891 164.926 19.2125 165.71 19.0593C166.511 18.906 167.226 18.7017 167.856 18.4464L168.163 20.0808C167.516 20.3702 166.783 20.5915 165.965 20.7447C165.148 20.915 164.33 21.0001 163.512 21.0001Z" fill="white"/>
<path d="M177.112 21.0001C175.664 21.0001 174.616 20.6937 173.969 20.0808C173.339 19.4508 173.023 18.4208 173.023 16.9907V9.17621H169.778V7.46519H173.023V3.1238H175.042V7.46519H179.974V9.17621H175.042V16.48C175.042 17.5015 175.221 18.2165 175.579 18.6251C175.937 19.0167 176.575 19.2125 177.495 19.2125C177.904 19.2125 178.296 19.1784 178.671 19.1103C179.063 19.0422 179.429 18.9486 179.77 18.8294L180 20.566C179.489 20.7192 178.995 20.8299 178.518 20.898C178.058 20.9661 177.589 21.0001 177.112 21.0001Z" fill="white"/>
<defs>
<linearGradient id="paint0_linear_97_20" x1="389.761" y1="26.9391" x2="389.761" y2="840.167" gradientUnits="userSpaceOnUse">
<stop stop-color="#4DAC7C"/>
<stop offset="1" stop-color="#64D369"/>
</linearGradient>
<linearGradient id="paint1_linear_97_20" x1="111.256" y1="-596.972" x2="111.256" y2="-49.3196" gradientUnits="userSpaceOnUse">
<stop stop-color="#59A156"/>
<stop offset="1" stop-color="#59A156"/>
</linearGradient>
<linearGradient id="paint2_linear_97_20" x1="1023.89" y1="4.25364" x2="1023.89" y2="1559.93" gradientUnits="userSpaceOnUse">
<stop stop-color="#4DAC7C"/>
<stop offset="1" stop-color="#64D369"/>
</linearGradient>
</defs>
</svg>
